{
    "asset" : {
        "generator" : "Khronos glTF Blender I/O v1.6.16",
        "version" : "2.0"
    },
    "scene" : 0,
    "scenes" : [
        {
            "name" : "Scene",
            "nodes" : [
                0
            ]
        }
    ],
    "nodes" : [
        {
            "mesh" : 0,
            "name" : "Displace",
            "scale" : [
                1.2737585306167603,
                1.2737585306167603,
                1.2737585306167603
            ]
        }
    ],
    "materials" : [
        {
            "doubleSided" : true,
            "name" : "Material",
            "pbrMetallicRoughness" : {
                "baseColorFactor" : [
                    0.08515650033950806,
                    0.8000000715255737,
                    0.5676476359367371,
                    1
                ],
                "roughnessFactor" : 0.5463414788246155
            }
        }
    ],
    "meshes" : [
        {
            "name" : "Cube",
            "primitives" : [
                {
                    "attributes" : {
                        "POSITION" : 0,
                        "NORMAL" : 1,
                        "TEXCOORD_0" : 2
                    },
                    "indices" : 3,
                    "material" : 0
                }
            ]
        }
    ],
    "accessors" : [
        {
            "bufferView" : 0,
            "componentType" : 5126,
            "count" : 24576,
            "max" : [
                1.2607805728912354,
                1.2494187355041504,
                1.2571594715118408
            ],
            "min" : [
                -1.2559354305267334,
                -1.2691665887832642,
                -1.271363615989685
            ],
            "type" : "VEC3"
        },
        {
            "bufferView" : 1,
            "componentType" : 5126,
            "count" : 24576,
            "type" : "VEC3"
        },
        {
            "bufferView" : 2,
            "componentType" : 5126,
            "count" : 24576,
            "type" : "VEC2"
        },
        {
            "bufferView" : 3,
            "componentType" : 5123,
            "count" : 36864,
            "type" : "SCALAR"
        }
    ],
    "bufferViews" : [
        {
            "buffer" : 0,
            "byteLength" : 294912,
            "byteOffset" : 0
        },
        {
            "buffer" : 0,
            "byteLength" : 294912,
            "byteOffset" : 294912
        },
        {
            "buffer" : 0,
            "byteLength" : 196608,
            "byteOffset" : 589824
        },
        {
            "buffer" : 0,
            "byteLength" : 73728,
            "byteOffset" : 786432
        }
    ],
    "buffers" : [
        {
            "byteLength" : 860160,
            "uri" : "data:application/octet-stream;base64,"
        }
    ]
}
